:FULLY-SPECIFIED
:DEGREES
55
root -0.567874014377594 -0.567874014377594 -0.567874014377594 -0.5678755879732001 -0.5678755879732001 -0.5678755879732001
lhipjoint -9.671654586443837e-08 -1.5341245206083327e-07 1.0672170578144923e-06
lfemur -16.5873346729767 -3.5732542319837792 -14.59386370898573
ltibia 19.696969537921763 -1.4149505106935172e-06 3.231676627413991e-07
lfoot -15.036622184195343 -5.733163037723834e-07 12.92245921624931
ltoes -51.84872072547008 -6.531732127146952e-07 4.58092288327571e-07
rhipjoint 1.1005675908711953e-07 6.870210827458292e-07 -1.494104084495789e-06
rfemur -6.448027279345844 5.490173929861126 10.107955117793203
rtibia -0.09242615986925222 -2.9103109015662656e-09 -8.919776151064017e-10
rfoot -13.749428638876836 1.8405028239638468e-06 -18.23876342371177
rtoes -5.012593869602318 4.70503168916766e-07 -5.841067808069038e-07
lowerback 25.962407931506597 0.6388276464321455 -1.9822715881862638
upperback 2.3479731498402634 0.43049334977054876 1.459230002255262
thorax -11.858572729428845 0.3667674980513447 2.6459608563929913
lowerneck -11.457395592112624 -2.029057957114028 -1.9248847656666397
upperneck 23.5797988923852 -3.0151462414105206 2.3060364286666197
head 9.370881229926802 -1.331763944747426 0.7745436119620046
lclavicle -1.4085775951116125e-07 5.4855408257763046e-08 -1.0938974842598547e-06
lhumerus 64.92150813648314 26.661440227016964 68.85661234375927
lradius 22.15493434660862 6.192386280407259e-07 1.8451180378065876e-06
lwrist -1.518945692335391e-06 -56.21500111467077 3.6625596012193284e-07
lhand -4.562975323145072 2.6246558075710764e-07 -26.656099019086014
lfingers 7.125022823272814 9.845282338726802e-08 3.18924141240953e-07
lthumb 21.213298854421275 -1.2803152392500461e-07 2.20318914769186
rclavicle 1.398304276268298e-07 4.3880174074018323e-07 -1.3740421654916584e-06
rhumerus 57.703043202722675 -23.03196478698411 -45.768797099931966
rradius 30.747261096065884 -8.157201669318168e-08 -3.3657299336840662e-06
rwrist 3.7950566748059823e-07 39.384243622316696 8.483525561858827e-07
rhand -6.972260092956778 2.0321462048512455e-07 -36.68780446630613
rfingers 7.125022396385991 5.1024341088409163e-08 -3.1892353057445414e-07
rthumb 18.897492480477187 1.5447771905696147e-06 -65.78980959509936
56
root -0.567874014377594 -0.567874014377594 -0.567874014377594 -0.5678755879732001 -0.5678755879732001 -0.5678755879732001
lhipjoint -9.671654586443837e-08 -1.5341245206083327e-07 1.0672170578144923e-06
lfemur -16.18660576682476 -3.641801797050616 -14.47187482286201
ltibia 19.579707142703693 -9.567189904042104e-07 4.002723486623095e-07
lfoot -15.454739044426844 7.607921402495667e-07 13.322967848800518
ltoes -51.80343998636748 -6.550180362076939e-07 4.5631504526044413e-07
rhipjoint 1.1005675908711953e-07 6.870210827458292e-07 -1.494104084495789e-06
rfemur -6.480648689708648 5.76358682922356 10.22947357463784
rtibia 0.22168067306278674 4.585895489686898e-09 -1.705395914427771e-06
rfoot -14.016199606158255 1.7697471358536366e-06 -17.92779174099026
rtoes -4.898980929835149 4.780521263976885e-07 -6.101052963285603e-07
lowerback 25.381102484077857 0.6847811058071384 -1.9022354314920544
upperback 2.335090986178796 0.49080378673962916 1.2662215561936896
thorax -11.686995816157186 0.3813841562360249 2.381660283157001
lowerneck -11.457395592112624 -2.029057957114028 -1.9248847656666397
upperneck 23.5797988923852 -3.0151462414105206 2.3060364286666197
head 9.370881229926802 -1.331763944747426 0.7745436119620046
lclavicle -1.4085775951116125e-07 5.4855408257763046e-08 -1.0938974842598547e-06
lhumerus 59.649257795393616 30.028834478407266 62.34751719681798
lradius 22.635373267921903 6.353638876091211e-07 1.9246111421822147e-06
lwrist -1.486487851922244e-06 -55.7546019683823 3.584281824954144e-07
lhand -4.562975323145072 2.6246558075710764e-07 -26.656099019086014
lfingers 7.125022823272814 9.845282338726802e-08 3.18924141240953e-07
lthumb 21.213298854421275 -1.2803152392500461e-07 2.20318914769186
rclavicle 1.398304276268298e-07 4.3880174074018323e-07 -1.3740421654916584e-06
rhumerus 52.43395865431345 -26.35285911050496 -41.72245301673843
rradius 30.868817972724603 -9.376914365223234e-07 -3.629767064675941e-06
rwrist 3.724804583001816e-07 38.93794881666431 8.326557809441742e-07
rhand -6.972260092956778 2.0321462048512455e-07 -36.68780446630613
rfingers 7.125022396385991 5.1024341088409163e-08 -3.1892353057445414e-07
rthumb 18.897492480477187 1.5447771905696147e-06 -65.78980959509936
57
root -0.567874014377594 -0.567874014377594 -0.567874014377594 -0.5678755879732001 -0.5678755879732001 -0.5678755879732001
lhipjoint -9.671654586443837e-08 -1.5341245206083327e-07 1.0672170578144923e-06
lfemur -15.868715102474024 -3.652608436978045 -14.37303174028817
ltibia 19.618366013405964 -1.1804979324599928e-06 3.623897541844581e-07
lfoot -15.938068843306334 -1.288291765057907e-06 13.644928452122933
ltoes -51.84628917812555 -2.3827509607189455e-07 1.3117708741608453e-06
rhipjoint 1.1005675908711953e-07 6.870210827458292e-07 -1.494104084495789e-06
rfemur -6.57116150281601 5.957305081350285 10.373593127446048
rtibia 0.6745087147388508 2.5864957669472514e-08 6.687044655296711e-09
rfoot -14.379926816255297 1.673733060018365e-06 -17.514655796210988
rtoes -4.8373986636178445 -3.681313932731859e-07 -5.058430498711933e-07
lowerback 24.79156324360467 0.7287674707011677 -1.8127460795431356
upperback 2.2223924379867626 0.5569746060578598 1.1136899850923765
thorax -11.581035676468193 0.3993886682903107 2.145800404181532
lowerneck -11.457395592112624 -2.029057957114028 -1.9248847656666397
upperneck 23.5797988923852 -3.0151462414105206 2.3060364286666197
head 9.370881229926802 -1.331763944747426 0.7745436119620046
lclavicle -1.4085775951116125e-07 5.4855408257763046e-08 -1.0938974842598547e-06
lhumerus 53.51336418470183 32.90087096778968 55.22010209978837
lradius 23.10999116051504 -9.696590135146512e-07 1.2272489311672623e-06
lwrist -1.4745700845308632e-06 -55.582167012596166 3.55555022062805e-07
lhand -4.562975323145072 2.6246558075710764e-07 -26.656099019086014
lfingers 7.125022823272814 9.845282338726802e-08 3.18924141240953e-07
lthumb 21.213298854421275 -1.2803152392500461e-07 2.20318914769186
rclavicle 1.398304276268298e-07 4.3880174074018323e-07 -1.3740421654916584e-06
rhumerus 46.43044435502027 -29.13836222574519 -37.348457928870204
rradius 31.02988407863726 -2.0543472398609843e-07 -3.0046648169133443e-06
rwrist 3.6749675811426535e-07 38.616294718080894 8.215111682292009e-07
rhand -6.972260092956778 2.0321462048512455e-07 -36.68780446630613
rfingers 7.125022396385991 5.1024341088409163e-08 -3.1892353057445414e-07
rthumb 18.897492480477187 1.5447771905696147e-06 -65.78980959509936
58
root -0.567874014377594 -0.567874014377594 -0.567874014377594 -0.5678755879732001 -0.5678755879732001 -0.5678755879732001
lhipjoint -9.671654586443837e-08 -1.5341245206083327e-07 1.0672170578144923e-06
lfemur -15.63802887835143 -3.643371459899249 -14.29702027256239
ltibia 19.768864109125317 -1.4341639107465515e-06 3.2102391799721773e-07
lfoot -16.44857254979872 5.137773888017593e-07 13.889396290443322
ltoes -51.95264546878641 -2.3296250108747752e-07 1.3159354161274413e-06
rhipjoint 1.1005675908711953e-07 6.870210827458292e-07 -1.494104084495789e-06
rfemur -6.699365434197619 6.073799934060376 10.519829185123312
rtibia 1.2068535519279389 6.182354556497548e-08 -2.5492604789581716e-06
rfoot -14.820154706377423 4.119949470406607e-06 -17.04771845133953
rtoes -4.78344102294839 -3.634937883254877e-07 -4.932413360011105e-07
lowerback 24.203514691917835 0.770991913593598 -1.7343222743798725
upperback 2.020437831494649 0.6241425796340594 0.9982184868190235
thorax -11.528547380243939 0.41945557730882305 1.9477652590559478
lowerneck -11.457395592112624 -2.029057957114028 -1.9248847656666397
upperneck 23.5797988923852 -3.0151462414105206 2.3060364286666197
head 9.370881229926802 -1.331763944747426 0.7745436119620046
lclavicle -1.4085775951116125e-07 5.4855408257763046e-08 -1.0938974842598547e-06
lhumerus 46.623926538733805 35.193727906122525 47.72862084452416
lradius 23.50974334961567 -1.020155026303813e-07 1.4650119324910039e-06
lwrist -1.4936433366224134e-06 -55.85723239085092 3.601519413550178e-07
lhand -4.562975323145072 2.6246558075710764e-07 -26.656099019086014
lfingers 7.125022823272814 9.845282338726802e-08 3.18924141240953e-07
lthumb 21.213298854421275 -1.2803152392500461e-07 2.20318914769186
rclavicle 1.398304276268298e-07 4.3880174074018323e-07 -1.3740421654916584e-06
rhumerus 39.80757191688492 -31.302627192574207 -32.76357050509409
rradius 31.205317487469035 7.636897527865672e-07 -3.2339586881201596e-06
rwrist 3.686577877951868e-07 38.69159072349112 8.241068061825246e-07
rhand -6.972260092956778 2.0321462048512455e-07 -36.68780446630613
rfingers 7.125022396385991 5.1024341088409163e-08 -3.1892353057445414e-07
rthumb 18.897492480477187 1.5447771905696147e-06 -65.78980959509936
